. 
  
http://www.torrentday.com/        :     The Hottest Private Tracker On The Net!!!


               www . TorrentDay . Com 
(((((((((((((= Enjoy No RAR releases =))))))))))))))))))))


...................................NFO:....................................

.
                                                     
                                                   
                                                         
                                                          
                                                           
                                                          
                                                          
                                                          
                                                           
                                                         
                                                          
                                                        
                                                      
                                     
                                                 
                                                   
                                             
                                              
                                                     
                                                      
                                                      
                                                      
                                                    
                                                     
                                                   
                                                     
                                                     
                                                      
                                                     
                                                      
                                                    
                 ARTiCHOKE                        
                                                
                      
                                                        
                                                      
                                                      
                                               
                                          
                                                   
                                            
                                                    
                                                       
                                                        
                                                      
                                                
                                                        
                                                 
                                              
                                                  
                                                
                                                  
                                        

      
                                
      SPRiNTER proudly presents...     
                                
      
 
Sex.Galaxy.2008.DVDRip.XViD-SPRiNTER 
http://www.imdb.com/title/tt1198142/

Date: 2010.08

Director : Mike Davis

Genre: Comedy | Sci-Fi

Plot: One hundred years in the future... Due to overpopulation and the effects of global warming, sex has been declared illegal on Earth. 
      When a crew of astronauts hear of a distant planet inhabited by insatiable female creatures who exist only to satisfy man's desires, 
      they decide to take a detour from their routine mission in search of the mythical star system known as the Sex Galaxy.

Cast : 
      Ben Phillips	 ... 	Billy Schultz (voice)
	Anthony Jenkins	... 	Giles Grayson (voice)
	Johanna Jussinniemi	... 	Willa (as Puma Swede)
      Casey Robinson	... 	Willa (voice)
	Stephen Heiser	... 	Big Ben Dorsett (voice)
      Jesse Bernstein	... 	Wron (voice)
	Nick Shakoour	... 	Vinnie, Mission Control Chief (voice)
	Amanda Abel	... 	Linda Grayson (voice)

      
                 
      Release notes     
                 
      

         aint this somethin....	
	   Enjoy!


      
           
     Greetings    
           
      


NTX aAF FiCO HNR CiNEFiLE AEN HUMANiSM


      
           
      Details     
           
      

Format                           : AVI
Format/Info                      : Audio Video Interleave
File size                        : 700 MiB
Duration                         : 1h 17mn
Overall bit rate                 : 1 262 Kbps
Writing application              : Nandub v1.0rc2
Writing library                  : Nandub build 1852/release

Video
ID                               : 0
Format                           : MPEG-4 Visual
Format profile                   : AdvancedSimple@L5
Format settings, BVOP            : No
Format settings, QPel            : No
Format settings, GMC             : No warppoints
Format settings, Matrix          : Default (H.263)
Codec ID                         : XVID
Codec ID/Hint                    : XviD
Duration                         : 1h 17mn
Bit rate                         : 1 111 Kbps
Width                            : 512 pixels
Height                           : 384 pixels
Display aspect ratio             : 4:3
Frame rate                       : 29.970 fps
Resolution                       : 24 bits
Colorimetry                      : 4:2:0
Scan type                        : Progressive
Bits/(Pixel*Frame)               : 0.189
Stream size                      : 617 MiB (88%)
Writing library                  : XviD 1.2.1 (UTC 2008-12-04)

Audio
ID                               : 1
Format                           : MPEG Audio
Format version                   : Version 1
Format profile                   : Layer 3
Codec ID                         : 55
Codec ID/Hint                    : MP3
Duration                         : 1h 17mn
Bit rate mode                    : Variable
Bit rate                         : 137 Kbps
Minimum bit rate                 : 32.0 Kbps
Channel(s)                       : 2 channels
Sampling rate                    : 48.0 KHz
Resolution                       : 16 bits
Stream size                      : 76.1 MiB (11%)
Alignment                        : Aligned on interleaves
Interleave, duration             : 24 ms (0.72 video frame)
Interleave, preload duration     : 270 ms
Writing library                  : LAME3.98r
Encoding settings                : -m s -V 5 -q 0 -lowpass 16.5 --vbr-new -b 32